# xmcd
#
# Track frame offsets:
#	150
#	15224
#	30061
#	44743
#	59942
#	74152
#	89545
#	105022
#	121099
#	138637
#
# Disc length: 2100 seconds
#
# Revision: 0
# Processed by: cddbd v1.5.1PL0 Copyright (c) Steve Scherf et al.
# Submitted via: EasyCDDAExtractor 8.2.3.1
#
DISCID=8408320a
DTITLE=Joe Nichols - The Early Years Disc 1
DYEAR=2005
DGENRE=Country
TTITLE0=She Could Care Less
TTITLE1=Six Od One, Half A Dozen (Of The Other)
TTITLE2=Wal-mart Parking Lot
TTITLE3=To Tell You The Truth, I Lied
TTITLE4=I Hate The Way I Love You
TTITLE5=Independent Girl
TTITLE6=In Spite Of Myself
TTITLE7=I'm Not That Kind Of Guy
TTITLE8=Old Cheyenne
TTITLE9=Leave The Past Behind
EXTD=
EXTT0=
EXTT1=
EXTT2=
EXTT3=
EXTT4=
EXTT5=
EXTT6=
EXTT7=
EXTT8=
EXTT9=
PLAYORDER=
